# Blender v2.93.3 OBJ File: 'shovel.blend'
# www.blender.org
mtllib shovel.mtl
o Shovel_Cylinder.004
v -0.031207 0.100013 -0.000014
v -0.000668 0.384573 -0.000014
v -0.014895 0.100013 -0.028267
v -0.001927 0.315375 -0.055640
v 0.017728 0.100013 -0.028267
v 0.008472 0.314069 -0.016593
v 0.034040 0.100013 -0.000014
v 0.003500 0.384573 -0.000014
v 0.017728 0.100013 0.028238
v 0.004759 0.315375 0.055611
v -0.014895 0.100013 0.028238
v -0.005640 0.314069 0.016564
v -0.031207 0.179442 -0.000014
v -0.017682 0.180080 -0.113710
v -0.007465 0.180081 -0.115669
v 0.034040 0.179442 -0.000014
v -0.007465 0.180081 0.115641
v -0.017682 0.180080 0.113682
v -0.005640 0.314069 -0.016593
v -0.002982 0.328407 -0.000014
v 0.005815 0.328407 -0.000014
v 0.004759 0.315375 -0.055640
v 0.008472 0.314069 0.016564
v -0.001927 0.315375 0.055611
v -0.017682 0.179476 -0.029918
v 0.013441 0.179442 -0.028267
v 0.013441 0.179442 0.028238
v -0.017682 0.179476 0.029890
v -0.010453 0.316985 -0.103798
v -0.010037 0.453844 -0.000014
v -0.008659 0.453844 -0.000014
v -0.008243 0.316985 -0.103798
v -0.008243 0.316985 0.103769
v -0.010453 0.316985 0.103769
v -0.004281 0.179728 -0.067402
v 0.007113 0.179728 -0.067402
v 0.007113 0.179728 0.067374
v -0.004281 0.179728 0.067374
v -0.017095 0.253924 -0.000014
v -0.008124 0.246755 -0.023622
v 0.010957 0.246755 -0.023622
v 0.019927 0.253924 -0.000014
v 0.010957 0.246755 0.023594
v -0.008124 0.246755 0.023594
v -0.003104 0.247551 -0.061521
v 0.005936 0.247551 -0.061521
v 0.005936 0.247551 0.061493
v -0.003104 0.247551 0.061493
v -0.010842 0.248533 -0.109734
v -0.007854 0.248533 -0.109734
v -0.007854 0.248533 0.109705
v -0.010842 0.248533 0.109705
v -0.017682 0.184970 -0.029539
v 0.013238 0.184935 -0.027888
v 0.032888 0.185520 -0.000014
v 0.013238 0.184935 0.027859
v -0.017682 0.184970 0.029511
v -0.004184 0.185263 -0.066922
v 0.007017 0.185263 -0.066922
v 0.007017 0.185263 0.066894
v -0.004184 0.185263 0.066894
v -0.017682 0.185667 -0.113226
v -0.007497 0.185668 -0.115185
v -0.007497 0.185668 0.115157
v -0.017682 0.185667 0.113197
v -0.030055 0.185520 -0.000014
v -0.010406 0.184935 -0.027888
v -0.010609 0.179442 -0.028267
v -0.010406 0.184935 0.027859
v -0.010609 0.179442 0.028238
v -0.017682 0.179745 -0.067244
v -0.017682 0.179745 0.067215
v -0.011199 0.185668 -0.115185
v -0.011231 0.180081 -0.115669
v -0.011199 0.185668 0.115157
v -0.011231 0.180081 0.115641
v -0.017682 0.185280 0.066735
v -0.017682 0.185280 -0.066764
v 0.009918 -0.495117 0.086680
v 0.009918 -0.495117 -0.086708
v 0.024052 -0.482220 0.086680
v 0.024052 -0.482220 -0.086708
v 0.024926 -0.463105 0.086680
v 0.024926 -0.463105 -0.086708
v 0.012029 -0.448972 0.086680
v 0.012028 -0.448972 -0.086708
v -0.007086 -0.448097 0.086680
v -0.007086 -0.448097 -0.086708
v -0.021220 -0.460995 0.086680
v -0.021220 -0.460995 -0.086708
v -0.022094 -0.480109 0.086680
v -0.022094 -0.480109 -0.086708
v -0.009196 -0.494243 0.086680
v -0.009196 -0.494243 -0.086708
v 0.009918 -0.495117 0.009917
v 0.024052 -0.482220 0.009917
v 0.024926 -0.463105 0.009917
v 0.012029 -0.448972 0.009917
v -0.007086 -0.448097 0.009917
v -0.021220 -0.460995 0.009917
v -0.022094 -0.480109 0.009917
v -0.009196 -0.494243 0.009917
v 0.009918 -0.495117 -0.009365
v 0.024052 -0.482220 -0.009365
v 0.024926 -0.463105 -0.009365
v 0.012029 -0.448972 -0.009365
v -0.007086 -0.448097 -0.009365
v -0.021220 -0.460995 -0.009365
v -0.022094 -0.480109 -0.009365
v -0.009196 -0.494243 -0.009365
v 0.010623 0.107254 -0.023257
v 0.024361 0.107254 -0.009939
v 0.024659 0.107254 0.009193
v 0.011341 0.107254 0.022931
v -0.007791 0.107254 0.023229
v -0.021530 0.107254 0.009911
v -0.021827 0.107254 -0.009221
v -0.008509 0.107254 -0.022960
v 0.012029 -0.448972 0.009917
v -0.007086 -0.448097 0.009917
v 0.012029 -0.448972 -0.009365
v -0.007086 -0.448097 -0.009365
v 0.010623 -0.448907 -0.023257
v 0.012028 -0.448972 -0.021895
v 0.020946 -0.458744 -0.013250
v 0.012029 -0.448972 0.022222
v 0.011341 -0.448940 0.022931
v 0.020946 -0.458744 0.013023
v -0.007086 -0.448097 0.023218
v -0.007791 -0.448741 0.023229
v -0.018753 -0.458744 0.012602
v -0.008509 -0.449396 -0.022960
v -0.018753 -0.458744 -0.012392
v -0.007086 -0.448097 -0.022982
v -0.018753 -0.458744 0.009917
v 0.020946 -0.458744 0.009917
v 0.020946 -0.458744 -0.009365
v -0.018753 -0.458744 -0.009365
vt 1.000000 0.837289
vt 1.000000 1.000000
vt 0.833333 1.000000
vt 0.833333 0.837289
vt 0.833333 0.837289
vt 0.833333 1.000000
vt 0.666667 1.000000
vt 0.666667 0.837289
vt 0.666667 0.837289
vt 0.666667 1.000000
vt 0.500000 1.000000
vt 0.500000 0.837289
vt 0.333333 1.000000
vt 0.333333 0.837289
vt 0.457846 0.370000
vt 0.250000 0.490000
vt 0.250000 0.010000
vt 0.457846 0.130000
vt 0.333333 0.837289
vt 0.333333 1.000000
vt 0.166667 1.000000
vt 0.166667 0.837289
vt 0.166667 0.837289
vt 0.166667 1.000000
vt -0.000000 1.000000
vt -0.000000 0.837289
vt 0.750000 0.490000
vt 0.957846 0.370000
vt 0.957846 0.130000
vt 0.750000 0.010000
vt 0.542154 0.130000
vt 0.542154 0.370000
vt 0.166667 0.500000
vt 0.166667 0.674577
vt -0.000000 0.674577
vt -0.000000 0.500000
vt 0.333333 0.500000
vt 0.333333 0.674577
vt 0.500000 0.500000
vt 0.500000 0.674577
vt 0.666667 0.500000
vt 0.666667 0.674577
vt 0.833333 0.500000
vt 0.833333 0.674577
vt 1.000000 0.500000
vt 1.000000 0.674577
vt 0.042154 0.370000
vt 0.042154 0.130000
vt 0.250000 0.490000
vt 0.457846 0.370000
vt 0.457846 0.370000
vt 0.250000 0.490000
vt 0.457846 0.130000
vt 0.250000 0.010000
vt 0.250000 0.010000
vt 0.457846 0.130000
vt 0.042154 0.130000
vt 0.042154 0.130000
vt 0.042154 0.370000
vt 0.042154 0.370000
vt 0.833333 0.687856
vt 0.833333 0.674577
vt 0.833333 0.674577
vt 0.833333 0.687856
vt 0.666667 0.837289
vt 0.666667 1.000000
vt 0.333333 0.687856
vt 0.333333 0.674577
vt 0.333333 0.687856
vt 0.166667 0.837289
vt 0.166667 1.000000
vt 0.166667 0.674577
vt 0.833333 0.674577
vt 0.666667 0.674577
vt 0.833333 0.687856
vt 0.833333 0.674577
vt 0.333333 0.687856
vt 0.333333 0.674577
vt 0.166667 0.674577
vt 0.833333 0.674577
vt 0.666667 0.674577
vt 0.166667 0.687856
vt 0.166667 0.687856
vt 0.333333 0.837289
vt 0.333333 1.000000
vt 0.666667 0.687856
vt 0.666667 0.687856
vt 0.833333 0.837289
vt 0.833333 1.000000
vt 0.166667 0.687856
vt 0.666667 0.687856
vt -0.000000 0.687856
vt 0.500000 0.687856
vt 0.833333 0.687856
vt 1.000000 0.687856
vt 0.833333 0.687856
vt 0.166667 0.674577
vt 0.166667 0.687856
vt 0.166667 0.687856
vt 0.166667 0.674577
vt 0.166667 0.674577
vt 0.166667 0.687856
vt 0.833333 0.687856
vt 1.000000 0.776964
vt 1.000000 1.000000
vt 0.875000 1.000000
vt 0.875000 0.776964
vt 0.750000 1.000000
vt 0.750000 0.776964
vt 0.625000 1.000000
vt 0.625000 0.776964
vt 0.500000 1.000000
vt 0.500000 0.776964
vt 0.375000 1.000000
vt 0.375000 0.776964
vt 0.250000 1.000000
vt 0.250000 0.776964
vt 0.419706 0.419706
vt 0.250000 0.490000
vt 0.080294 0.419706
vt 0.010000 0.250000
vt 0.080294 0.080294
vt 0.250000 0.010000
vt 0.419706 0.080294
vt 0.490000 0.250000
vt 0.125000 1.000000
vt 0.125000 0.776964
vt 0.000000 1.000000
vt 0.000000 0.776964
vt 0.750000 0.490000
vt 0.919706 0.419706
vt 0.990000 0.250000
vt 0.919706 0.080294
vt 0.750000 0.010000
vt 0.580294 0.080294
vt 0.510000 0.250000
vt 0.580294 0.419706
vt 0.125000 0.500000
vt 0.125000 0.721360
vt 0.000000 0.721360
vt 0.000000 0.500000
vt 0.250000 0.500000
vt 0.250000 0.721360
vt 0.375000 0.500000
vt 0.375000 0.721360
vt 0.500000 0.500000
vt 0.500000 0.721360
vt 0.625000 0.500000
vt 0.625000 0.721360
vt 0.750000 0.500000
vt 0.750000 0.721360
vt 0.875000 0.500000
vt 0.875000 0.721360
vt 1.000000 0.500000
vt 1.000000 0.721360
vt 1.000000 0.508197
vt 1.000000 1.000000
vt 0.875000 1.000000
vt 0.875000 0.500000
vt 0.906075 0.500000
vt 0.987214 0.508144
vt 0.750000 1.000000
vt 0.750000 0.500000
vt 0.625000 1.000000
vt 0.625000 0.508170
vt 0.631452 0.508144
vt 0.715153 0.500000
vt 0.500000 1.000000
vt 0.500000 0.508336
vt 0.504607 0.508872
vt 0.375000 1.000000
vt 0.375000 0.500000
vt 0.400261 0.500000
vt 0.250000 1.000000
vt 0.250000 0.500000
vt 0.250000 0.010000
vt 0.419706 0.080294
vt 0.490000 0.250000
vt 0.419706 0.419706
vt 0.250000 0.490000
vt 0.080294 0.419706
vt 0.010000 0.250000
vt 0.080294 0.080294
vt 0.221151 0.500000
vt 0.125000 1.000000
vt 0.125000 0.507790
vt 0.000000 1.000000
vt 0.000000 0.508197
vt 0.115703 0.508872
vt 0.605098 0.090051
vt 0.614589 0.066089
vt 0.580294 0.080294
vt 0.510000 0.250000
vt 0.526223 0.289167
vt 0.536926 0.262148
vt 0.919706 0.419706
vt 0.990000 0.250000
vt 0.970403 0.202690
vt 0.959424 0.230407
vt 0.891253 0.402504
vt 0.877517 0.437181
vt 0.711429 0.788168
vt 0.711429 0.776964
vt 0.625000 0.776964
vt 0.625000 0.813097
vt 0.500000 0.776964
vt 0.500000 0.816232
vt 0.615811 0.817003
vt 0.487416 0.816168
vt 0.396815 0.776964
vt 0.396815 0.785694
vt 0.500000 0.721360
vt 0.500000 0.683006
vt 0.493764 0.682974
vt 0.396815 0.713618
vt 0.396815 0.721360
vt 0.625000 0.721360
vt 0.625000 0.685877
vt 0.620504 0.683855
vt 0.711429 0.721360
vt 0.711429 0.712405
vn -0.9679 0.1241 -0.2185
vn 0.0000 0.0864 -0.9963
vn 0.9679 0.1241 -0.2185
vn 0.9679 0.1241 0.2185
vn 0.0000 0.6042 -0.7968
vn 0.0000 0.0864 0.9963
vn -0.9679 0.1241 0.2185
vn 0.0000 -1.0000 0.0000
vn -0.8370 0.0226 0.5467
vn 0.0000 -0.0000 1.0000
vn 0.8370 0.0226 0.5467
vn 0.8370 0.0226 -0.5467
vn -0.0000 -0.0000 -1.0000
vn -0.8370 0.0226 -0.5467
vn 0.0000 0.6042 0.7968
vn -0.9962 0.0791 -0.0374
vn 0.9962 0.0791 -0.0374
vn 0.9962 0.0791 0.0374
vn -0.9962 0.0791 0.0374
vn -1.0000 -0.0000 0.0000
vn 0.9930 0.0376 -0.1117
vn 0.9867 0.0390 0.1581
vn -0.9930 0.0376 0.1117
vn 0.0000 -1.0000 0.0073
vn 0.0000 -1.0000 -0.0073
vn -0.9763 -0.1275 0.1751
vn 0.9560 0.1843 -0.2282
vn 0.9560 0.1843 0.2282
vn -0.9763 -0.1275 -0.1751
vn 0.9631 0.0342 -0.2668
vn 0.9569 0.0360 0.2881
vn -0.9861 -0.0031 -0.1663
vn -0.9885 -0.0017 -0.1511
vn 0.9631 0.0342 0.2668
vn 0.9591 0.0354 -0.2809
vn -0.9861 -0.0031 0.1663
vn -0.9889 0.0380 0.1439
vn 0.9930 0.0376 0.1117
vn 0.9889 0.0380 -0.1439
vn -0.9930 0.0376 -0.1117
vn -0.8604 0.1170 0.4960
vn 0.8604 0.1170 0.4960
vn 0.8604 0.1170 -0.4960
vn -0.8604 0.1170 -0.4960
vn -0.8068 0.1134 -0.5798
vn 0.8068 0.1134 -0.5798
vn 0.8068 0.1134 0.5798
vn -0.8068 0.1134 0.5798
vn 0.9867 0.0390 -0.1581
vn 0.9569 0.0360 -0.2881
vn 0.9591 0.0354 0.2809
vn -0.9885 -0.0017 0.1511
vn 0.9889 0.0380 0.1439
vn -0.9889 0.0380 -0.1439
vn -0.2242 -0.0630 0.9725
vn -0.2242 -0.0630 -0.9725
vn -0.0020 -1.0000 -0.0074
vn -0.0020 -1.0000 0.0074
vn -0.2889 0.0835 -0.9537
vn -0.2889 0.0835 0.9537
vn -0.0015 -1.0000 -0.0072
vn -0.0015 -1.0000 0.0072
vn 0.0019 1.0000 -0.0085
vn 0.0017 1.0000 -0.0082
vn 0.0017 1.0000 0.0082
vn 0.0019 1.0000 0.0085
vn 0.6741 -0.7387 0.0000
vn 0.9990 -0.0457 -0.0000
vn 0.7387 0.6741 -0.0000
vn 0.0457 0.9990 0.0000
vn -0.6741 0.7387 0.0000
vn -0.9990 0.0457 0.0000
vn -0.7387 -0.6741 0.0000
vn -0.0457 -0.9990 0.0000
vn 0.6964 -0.0000 -0.7177
vn 1.0000 0.0007 -0.0077
vn 0.7050 0.0002 0.7092
vn 0.0155 0.0000 0.9999
vn -0.7000 -0.0000 0.7141
vn -1.0000 -0.0008 0.0077
vn -0.0000 1.0000 0.0000
vn -0.7242 -0.0001 -0.6896
vn -0.0155 -0.0000 -0.9999
usemtl Steel.001
s off
f 39/1/1 20/2/1 19/3/1 40/4/1
f 49/5/2 29/6/2 32/7/2 50/8/2
f 41/9/3 6/10/3 21/11/3 42/12/3
f 42/12/4 21/11/4 23/13/4 43/14/4
f 29/15/5 30/16/5 31/17/5 32/18/5
f 51/19/6 33/20/6 34/21/6 52/22/6
f 44/23/7 12/24/7 20/25/7 39/26/7
f 1/27/8 3/28/8 5/29/8 7/30/8 9/31/8 11/32/8
f 11/33/9 70/34/9 13/35/9 1/36/9
f 9/37/10 27/38/10 70/34/10 11/33/10
f 7/39/11 16/40/11 27/38/11 9/37/11
f 5/41/12 26/42/12 16/40/12 7/39/12
f 3/43/13 68/44/13 26/42/13 5/41/13
f 1/45/14 13/46/14 68/44/14 3/43/14
f 31/17/15 30/16/15 34/47/15 33/48/15
f 2/49/16 4/50/16 19/51/16 20/52/16
f 22/53/17 8/54/17 21/55/17 6/56/17
f 8/54/18 10/57/18 23/58/18 21/55/18
f 24/59/19 2/49/19 20/52/19 12/60/19
f 78/61/20 71/62/20 25/63/20 53/64/20
f 46/65/21 22/66/21 6/10/21 41/9/21
f 60/67/22 37/68/22 27/38/22 56/69/22
f 48/70/23 24/71/23 12/24/23 44/23/23
f 37/68/24 38/72/24 70/34/24 27/38/24
f 35/73/25 36/74/25 26/42/25 68/44/25
f 30/16/26 29/15/26 4/50/26 2/49/26
f 32/18/27 31/17/27 8/54/27 22/53/27
f 31/17/28 33/48/28 10/57/28 8/54/28
f 34/47/29 30/16/29 2/49/29 24/59/29
f 62/75/20 14/76/20 71/62/20 78/61/20
f 50/8/30 32/7/30 22/66/30 46/65/30
f 64/77/31 17/78/31 37/68/31 60/67/31
f 52/22/32 34/21/32 24/71/32 48/70/32
f 17/78/24 76/79/24 38/72/24 37/68/24
f 74/80/25 15/81/25 36/74/25 35/73/25
f 75/82/33 52/22/33 48/70/33 61/83/33
f 33/20/34 51/19/34 47/84/34 10/85/34
f 63/86/35 50/8/35 46/65/35 59/87/35
f 29/6/36 49/5/36 45/88/36 4/89/36
f 61/83/37 48/70/37 44/23/37 69/90/37
f 10/85/38 47/84/38 43/14/38 23/13/38
f 59/87/39 46/65/39 41/9/39 54/91/39
f 4/89/40 45/88/40 40/4/40 19/3/40
f 69/90/41 44/23/41 39/26/41 66/92/41
f 64/77/6 51/19/6 52/22/6 75/82/6
f 55/93/42 42/12/42 43/14/42 56/69/42
f 54/91/43 41/9/43 42/12/43 55/93/43
f 73/94/2 49/5/2 50/8/2 63/86/2
f 66/95/44 39/1/44 40/4/44 67/96/44
f 13/46/45 66/95/45 67/96/45 68/44/45
f 74/80/2 73/94/2 63/86/2 15/81/2
f 26/42/46 54/91/46 55/93/46 16/40/46
f 16/40/47 55/93/47 56/69/47 27/38/47
f 17/78/6 64/77/6 75/82/6 76/79/6
f 70/34/48 69/90/48 66/92/48 13/35/48
f 36/74/49 59/87/49 54/91/49 26/42/49
f 72/97/20 77/98/20 57/99/20 28/100/20
f 15/81/50 63/86/50 59/87/50 36/74/50
f 18/101/20 65/102/20 77/98/20 72/97/20
f 51/19/51 64/77/51 60/67/51 47/84/51
f 49/5/52 73/94/52 58/103/52 45/88/52
f 47/84/53 60/67/53 56/69/53 43/14/53
f 45/88/54 58/103/54 67/96/54 40/4/54
f 53/64/55 25/63/55 68/44/55 67/96/55
f 28/100/56 57/99/56 69/90/56 70/34/56
f 25/63/57 71/62/57 35/73/57 68/44/57
f 72/97/58 28/100/58 70/34/58 38/72/58
f 14/76/59 62/75/59 73/94/59 74/80/59
f 65/102/60 18/101/60 76/79/60 75/82/60
f 71/62/61 14/76/61 74/80/61 35/73/61
f 18/101/62 72/97/62 38/72/62 76/79/62
f 57/99/63 77/98/63 61/83/63 69/90/63
f 77/98/64 65/102/64 75/82/64 61/83/64
f 62/75/65 78/61/65 58/103/65 73/94/65
f 78/61/66 53/64/66 67/96/66 58/103/66
usemtl Wood.001
f 103/104/67 80/105/67 82/106/67 104/107/67
f 104/107/68 82/106/68 84/108/68 105/109/68
f 105/109/69 84/108/69 86/110/69 106/111/69
f 106/111/70 86/110/70 88/112/70 107/113/70
f 107/113/71 88/112/71 90/114/71 108/115/71
f 108/115/72 90/114/72 92/116/72 109/117/72
f 82/118/13 80/119/13 94/120/13 92/121/13 90/122/13 88/123/13 86/124/13 84/125/13
f 109/117/73 92/116/73 94/126/73 110/127/73
f 110/127/74 94/126/74 80/128/74 103/129/74
f 79/130/10 81/131/10 83/132/10 85/133/10 87/134/10 89/135/10 91/136/10 93/137/10
f 93/138/74 102/139/74 95/140/74 79/141/74
f 91/142/73 101/143/73 102/139/73 93/138/73
f 89/144/72 100/145/72 101/143/72 91/142/72
f 87/146/71 99/147/71 100/145/71 89/144/71
f 85/148/70 98/149/70 99/147/70 87/146/70
f 83/150/69 97/151/69 98/149/69 85/148/69
f 81/152/68 96/153/68 97/151/68 83/150/68
f 79/154/67 95/155/67 96/153/67 81/152/67
f 102/139/74 110/127/74 103/129/74 95/140/74
f 101/143/73 109/117/73 110/127/73 102/139/73
f 100/145/72 108/115/72 109/117/72 101/143/72
f 99/147/71 107/113/71 108/115/71 100/145/71
f 98/149/70 106/111/70 107/113/70 99/147/70
f 97/151/69 105/109/69 106/111/69 98/149/69
f 96/153/68 104/107/68 105/109/68 97/151/68
f 95/155/67 103/104/67 104/107/67 96/153/67
f 123/156/75 111/157/75 112/158/75 105/159/75 125/160/75 124/161/75
f 105/159/76 112/158/76 113/162/76 97/163/76
f 97/163/77 113/162/77 114/164/77 127/165/77 126/166/77 128/167/77
f 114/164/78 115/168/78 130/169/78 129/170/78 127/165/78
f 130/169/79 115/168/79 116/171/79 100/172/79 131/173/79
f 100/172/80 116/171/80 117/174/80 108/175/80
f 115/176/81 114/177/81 113/178/81 112/179/81 111/180/81 118/181/81 117/182/81 116/183/81
f 133/184/82 108/175/82 117/174/82 118/185/82 132/186/82
f 132/186/83 118/185/83 111/187/83 123/188/83 134/189/83
f 135/190/67 131/191/67 100/192/67 108/193/67 133/194/67 138/195/67
f 105/196/73 97/197/73 128/198/73 136/199/73 137/200/73 125/201/73
f 125/202/73 137/203/73 121/204/73 124/205/73
f 124/205/74 121/204/74 122/206/74 134/207/74 123/208/74
f 132/209/67 134/207/67 122/206/67 138/210/67 133/211/67
f 120/212/67 129/213/67 130/214/67 131/215/67 135/216/67
f 129/213/74 120/212/74 119/217/74 126/218/74 127/219/74
f 126/218/73 119/217/73 136/220/73 128/221/73
f 122/206/67 120/212/67 135/216/67 138/210/67
f 119/217/74 120/212/74 122/206/74 121/204/74
f 136/220/73 119/217/73 121/204/73 137/203/73
